<svg xmlns="http://www.w3.org/2000/svg" viewBox="0 0 406.56 561.33"><defs><style>.cls-1{fill:#fff;stroke:#fff;stroke-miterlimit:10;}</style></defs><title>iconSBwhiteMore</title><g id="Layer_2" data-name="Layer 2"><g id="Layer_3" data-name="Layer 3"><g id="Layer_1-2" data-name="Layer 1"><g id="iconSBwhiteMOre"><polygon class="cls-1" points="248.44 184.57 203.44 168.29 203.44 263.27 248.44 247.69 248.44 184.57"/><polygon class="cls-1" points="405.04 160.66 243.13 100.46 203.42 112.59 169.27 99 158.91 102.43 360.51 175.18 405.04 160.66"/><polygon class="cls-1" points="358.94 450.96 314.39 434.65 249.32 457.27 249.32 464.5 238.47 468.05 249.32 471.81 249.32 495.29 358.94 450.96"/><polygon class="cls-1" points="359.14 270.93 314.4 255.25 249.32 278.65 249.32 293.58 360.29 336.65 404.94 322.09 312.7 287.24 312.71 286.41 359.14 270.93"/><polygon class="cls-1" points="158.91 472.12 203.44 487.54 247.97 472.12 237.53 468.5 203.44 479.64 170.01 468.28 158.91 472.12"/><polygon class="cls-1" points="360.5 451.24 360.22 451.35 248.44 496.6 248.44 495.94 248.44 472.74 203.44 488.32 203.44 560.58 405.5 477.12 405.5 322.73 360.5 337.44 360.5 451.24"/><polygon class="cls-1" points="360.5 175.97 360.5 271.26 313.19 286.85 360.73 304.5 405.5 290.04 405.5 161.29 360.5 175.97"/><polygon class="cls-1" points="359.62 337.42 249.32 294.53 249.32 344.08 314.62 370.35 314.62 433.87 359.62 450.31 359.62 337.42"/><polygon class="cls-1" points="157.56 545.04 202.56 560.62 202.56 488.32 157.56 472.74 157.56 545.04"/><polygon class="cls-1" points="359.62 175.96 157.56 103.04 157.56 248.56 202.56 263.28 202.56 167.71 202.56 167.08 314.62 207.51 314.62 254.47 359.62 270.32 359.62 175.96"/><polygon class="cls-1" points="156.68 385.04 92.26 361.37 47.98 377.69 156.68 415.15 156.68 385.04"/><polygon class="cls-1" points="46.52 377.73 46.52 377.68 46.45 377.71 46.52 377.73"/><polygon class="cls-1" points="236.95 467.94 236.65 468.04 236.95 468.14 236.95 467.94"/><polygon class="cls-1" points="156.68 227.66 92.04 205.24 47.62 220.64 203.42 273.13 248.75 258.58 234.72 253.79 203.22 264.35 203.08 264.31 156.68 249.21 156.68 248.88 156.68 227.66"/><polygon class="cls-1" points="2.72 331.56 47.26 346.36 91.85 330.34 48.72 314.65 2.72 331.56"/><polygon class="cls-1" points="247.93 13.8 204.46 0.53 1.88 71.79 46.38 86.28 247.93 13.8"/><polygon class="cls-1" points="91.38 330.69 46.38 346.99 46.38 377.08 91.38 360.6 91.38 330.69"/><polygon class="cls-1" points="248.44 259.2 203.44 273.91 203.44 478.57 248.44 463.86 248.44 259.2"/><polygon class="cls-1" points="46.38 220.03 91.38 204.45 91.38 119.97 91.38 119.67 203.44 78.35 203.44 111.52 248.44 97.68 248.44 14.39 46.38 87.05 46.38 220.03"/><polygon class="cls-1" points="202.56 273.91 45.5 220.97 45.5 220.65 45.5 87.06 0.5 72.41 0.5 253.86 157.56 307.69 157.56 416.39 156.97 416.19 45.5 378.02 45.5 377.71 45.5 347 0.5 332.19 0.5 409.87 202.56 478.56 202.56 273.91"/><polygon class="cls-1" points="202.56 79.61 161 94.94 202.56 111.47 202.56 79.61"/><polygon class="cls-1" points="159.32 94.92 159.61 95.03 159.61 94.82 159.32 94.92"/></g></g></g></g></svg>