<svg xmlns="http://www.w3.org/2000/svg" viewBox="0 0 600.09 600"><defs><style>.cls-1{fill:#aabe1e;}.cls-2{fill:#47526a;}</style></defs><title>logo</title><g id="Layer_2" data-name="Layer 2"><g id="logo"><circle class="cls-1" cx="299.09" cy="300" r="273"/><path class="cls-2" d="M300.09,0C147.19,0,21,114.38,2.44,262.24-.4,281.63,0,308.42,0,308.42l.19,0C4.69,470.23,137.23,600,300.09,600c165.68,0,300-134.31,300-300S465.77,0,300.09,0ZM529.37,218.58c12.57.72,23.5-3.88,26.5-5.27a270.61,270.61,0,0,1-24.18,225.52c28.85-84.56-7.47-142-76-174.35,1.55-10,3.1-19.94,5.43-28.89C467.9,209.44,503.92,217.12,529.37,218.58ZM293.83,56.69C298.32,45.15,297.44,33.53,297,30c1,0,2,0,3.07,0a269.39,269.39,0,0,1,204.07,93.2C432.63,69.38,366.79,86,314.76,141c-9.05-4.58-18.05-9.13-25.86-14.11C266.14,112.33,284.57,80.44,293.83,56.69Zm-98.11-5.76c-73,50.95-78.23,118-43,184.07-7.2,7.24-14.35,14.45-21.56,20.37C110.3,272.53,85.67,245.14,65.94,229a58.34,58.34,0,0,0-23.16-11A270.74,270.74,0,0,1,195.72,50.93ZM161.21,500.17c-10.2,6.55-16.28,16.2-18.15,19.49a269.75,269.75,0,0,1-111.95-196c26.6,83.11,88.65,107.88,161.9,94.48,4.9,9.56,9.85,19.07,13.43,28.2C216.31,471.44,182.65,486.4,161.21,500.17Zm55.07-87.49c-65.32-75,80.49-92.6,80.49-92.6s-50.7-10.6-97.64,13.65c-36.78,19-23.78,49.61-8.18,80.33-85.8-11.07-67.36-88.68-24.78-159.71,51.14-85.3,112.94,47.93,112.94,47.93s-5.57-51.49-43.15-88.64c-29.76-29.43-55.08-6.8-79.74,17.86-15-83.82,64.17-90.11,144.48-71.66C397.62,182.12,290,282.07,290,282.07s47.25-21.22,71-68.43c19-37.75-11.11-54.81-42.5-70.76,76.64-42.66,107.58,31.26,114.9,114.11,8.77,99.06-119.54,27.61-119.54,27.61s34.78,38.37,87,46.35c41.86,6.39,48.72-27.66,54.2-62.52,64.9,59.87,4.06,112.27-72.63,144.91-91.51,39-63.2-105.16-63.2-105.16S293.47,353.12,302,405.26c6.71,40.94,40,37.93,74.11,32.56C339.17,516.89,270.82,475.31,216.28,412.68Zm20.39,149.81c90,1.9,133.84-50.16,143.72-125.35,10.59-1.7,21.16-3.47,30.95-4.05,27-1.62,30.79,35,37.27,59.67,3.17,12.07,10.81,21,13.14,23.51a270.45,270.45,0,0,1-225.08,46.22Z"/></g></g></svg>