<svg xmlns="http://www.w3.org/2000/svg" viewBox="0 0 460.5 636"><defs><style>.cls-1{fill:#546e7a;}.cls-1,.cls-2{stroke:#c0ca33;stroke-miterlimit:10;}.cls-2{fill:#37474f;}</style></defs><title>sb</title><g id="Layer_2" data-name="Layer 2"><g id="Layer_1-2" data-name="Layer 1"><g id="sb"><polygon class="cls-1" points="177.5 436.31 104.49 409.49 54.32 427.98 177.5 470.44 177.5 436.31"/><polygon class="cls-2" points="52.66 427.97 52.58 428 52.66 428.03 52.66 427.97"/><polygon class="cls-1" points="230.48 127.53 191.77 112.13 180.03 116.02 408.51 198.47 458.98 182.01 275.48 113.78 230.48 127.53"/><polygon class="cls-1" points="282.5 561.26 406.73 511.02 356.25 492.53 282.5 518.17 282.5 526.36 270.2 530.39 282.5 534.64 282.5 561.26"/><polygon class="cls-2" points="268.48 530.26 268.13 530.37 268.47 530.49 268.48 530.26"/><polygon class="cls-2" points="458.87 364.96 354.32 325.47 354.34 324.53 406.95 306.99 356.25 289.21 282.5 315.74 282.5 332.66 408.26 381.47 458.87 364.96"/><polygon class="cls-1" points="53.91 249.99 230.47 309.47 281.85 292.99 265.95 287.56 230.25 299.53 230.09 299.48 177.5 282.36 177.5 282 177.5 257.95 104.25 232.53 53.91 249.99"/><polygon class="cls-2" points="53.49 392.47 104.03 374.31 55.15 356.53 3.01 375.69 53.49 392.47"/><polygon class="cls-1" points="230.5 543.53 192.61 530.64 180.03 535 230.5 552.47 280.97 535 269.13 530.9 230.5 543.53"/><polygon class="cls-2" points="52.49 97.71 280.92 15.56 231.65 0.53 2.06 81.29 52.49 97.71"/><polygon class="cls-2" points="459.5 365.69 408.5 382.36 408.5 511.34 408.19 511.46 281.5 562.74 281.5 562 281.5 535.7 230.5 553.36 230.5 635.25 459.5 540.67 459.5 365.69"/><polygon class="cls-1" points="103.5 374.71 52.5 393.19 52.5 427.28 103.5 408.6 103.5 374.71"/><polygon class="cls-2" points="353.21 324.93 353 325 353.21 325.08 353.21 324.93"/><polygon class="cls-1" points="459.5 328.64 459.5 182.73 408.5 199.36 408.5 307.36 354.89 325.03 408.76 345.03 459.5 328.64"/><polygon class="cls-1" points="281.5 293.69 230.5 310.36 230.5 542.31 281.5 525.64 281.5 293.69"/><polygon class="cls-1" points="230.5 88.72 230.5 126.32 281.5 110.63 281.5 16.24 52.5 98.59 52.5 249.3 103.5 231.64 103.5 135.9 103.5 135.55 230.5 88.72"/><polygon class="cls-1" points="281.5 209.11 230.5 190.66 230.5 298.3 281.5 280.64 281.5 209.11"/><polygon class="cls-1" points="356.5 491.65 407.5 510.29 407.5 382.34 282.5 333.73 282.5 389.89 356.5 419.66 356.5 491.65"/><polygon class="cls-2" points="229.5 553.36 178.5 535.7 178.5 617.64 229.5 635.3 229.5 553.36"/><polygon class="cls-2" points="229.5 310.36 51.5 250.36 51.5 250 51.5 98.6 0.5 81.99 0.5 287.64 178.5 348.64 178.5 471.84 177.84 471.61 51.5 428.36 51.5 428 51.5 393.2 0.5 376.41 0.5 464.45 229.5 542.3 229.5 310.36"/><polygon class="cls-2" points="229.5 90.16 182.4 107.53 229.5 126.26 229.5 90.16"/><polygon class="cls-2" points="180.82 107.39 180.5 107.51 180.82 107.64 180.82 107.39"/><polygon class="cls-2" points="356.5 235.11 356.5 288.33 407.5 306.29 407.5 199.35 178.5 116.71 178.5 281.64 229.5 298.31 229.5 190 229.5 189.29 356.5 235.11"/></g></g></g></svg>